<svg width="22" height="22" viewBox="0 0 22 22" fill="none" xmlns="http://www.w3.org/2000/svg">
<path d="M7.10519 11.602C8.67223 11.602 9.76301 10.4652 9.76301 8.63696C9.76301 6.80875 8.67223 5.67188 7.10519 5.67188C5.53815 5.67188 4.43201 6.82411 4.43201 8.63696C4.43201 10.4498 5.53815 11.602 7.10519 11.602ZM6.16804 16.549H7.99625L15.3398 5.79478H13.5116L6.16804 16.549ZM7.10519 10.3423C6.44458 10.3423 5.98368 9.77383 5.98368 8.63696C5.98368 7.50009 6.44458 6.93165 7.10519 6.93165C7.78117 6.93165 8.2267 7.48472 8.2267 8.63696C8.2267 9.78919 7.78117 10.3423 7.10519 10.3423ZM14.4027 16.6719C15.9697 16.6719 17.0759 15.5196 17.0759 13.7068C17.0759 11.8939 15.9697 10.7417 14.4027 10.7417C12.851 10.7417 11.7449 11.8939 11.7449 13.7068C11.7449 15.5196 12.851 16.6719 14.4027 16.6719ZM14.4027 15.4121C13.7421 15.4121 13.2812 14.859 13.2812 13.7068C13.2812 12.5546 13.7421 12.0015 14.4027 12.0015C15.0787 12.0015 15.5242 12.5699 15.5242 13.7068C15.5242 14.8437 15.0787 15.4121 14.4027 15.4121Z" fill="black"/>
<circle cx="11" cy="11" r="10" stroke="black" stroke-width="2"/>
</svg>
