<svg width="39" height="38" viewBox="0 0 39 38" fill="none" xmlns="http://www.w3.org/2000/svg">
<path d="M18.2677 37.1683C18.1017 37.1683 17.9663 37.0332 17.9663 36.8669V25.715H10.4312C10.2652 25.715 10.1298 25.5799 10.1298 25.4136V24.8108C10.1298 23.3482 11.2789 22.1615 12.7459 22.1088L13.0891 22.0967L12.5451 18.8325C12.5304 18.7448 12.5551 18.6559 12.6128 18.5879C12.6699 18.5202 12.7535 18.4814 12.8424 18.4814H13.6624L13.2098 16.6729H12.2396C12.0736 16.6729 11.9382 16.5378 11.9382 16.3715C11.9382 16.2052 12.0736 16.0701 12.2396 16.0701H13.4452C13.5836 16.0701 13.7037 16.164 13.7372 16.2985L14.2829 18.4814H15.8564C15.9453 18.4814 16.0289 18.5202 16.086 18.5876C16.1437 18.6559 16.1684 18.7448 16.1537 18.8319L15.6098 22.0982H17.9663V14.6314L17.5642 14.7742C17.3952 14.8342 17.2263 14.8645 17.0621 14.8645C16.6912 14.8645 16.3345 14.728 16.0578 14.4798L15.8564 14.3L15.6551 14.4798C15.3784 14.728 15.0217 14.8645 14.6508 14.8645C14.28 14.8645 13.9232 14.728 13.6466 14.4798L13.4452 14.3L13.2439 14.4798C12.9672 14.728 12.6105 14.8645 12.2396 14.8645C11.8687 14.8645 11.512 14.728 11.2353 14.4798L11.034 14.3L10.8327 14.4798C10.556 14.728 10.1993 14.8645 9.82839 14.8645C9.45753 14.8645 9.10079 14.728 8.82411 14.4798L8.62278 14.3L8.42145 14.4798C8.14477 14.728 7.78804 14.8645 7.41717 14.8645C6.58596 14.8645 5.91016 14.1884 5.91016 13.3575V12.1519C5.91016 7.3324 9.83134 3.41122 14.6508 3.41122H17.3635V2.50701C17.3635 1.6761 18.0393 1 18.8705 1H20.0761C20.9073 1 21.5831 1.6761 21.5831 2.50701V3.41122H24.2957C29.1152 3.41122 33.0364 7.3324 33.0364 12.1519V13.3575C33.0364 14.1884 32.3606 14.8645 31.5294 14.8645C31.1585 14.8645 30.8018 14.728 30.5251 14.4798L30.3238 14.3L30.1224 14.4798C29.8458 14.728 29.489 14.8645 29.1182 14.8645C28.7473 14.8645 28.3906 14.728 28.1139 14.4798L27.9126 14.3L27.7112 14.4798C27.4345 14.728 27.0778 14.8645 26.7069 14.8645C26.3361 14.8645 25.9793 14.728 25.7027 14.4798L25.5013 14.3L25.3 14.4798C25.0233 14.728 24.6666 14.8645 24.2957 14.8645C23.9249 14.8645 23.5681 14.728 23.2914 14.4798L23.0901 14.3L22.8888 14.4798C22.6121 14.728 22.2554 14.8645 21.8845 14.8645C21.7203 14.8645 21.5513 14.8342 21.3824 14.7742L20.9803 14.6314V22.0982H23.3368L22.7928 18.8325C22.7781 18.7448 22.8028 18.6559 22.8605 18.5879C22.9176 18.5202 23.0012 18.4814 23.0901 18.4814H24.6636L25.2093 16.2982C25.2429 16.164 25.363 16.0701 25.5013 16.0701H26.7069C26.873 16.0701 27.0083 16.2052 27.0083 16.3715C27.0083 16.5378 26.873 16.6729 26.7069 16.6729H25.7368L25.2841 18.4814H26.1041C26.193 18.4814 26.2766 18.5202 26.3337 18.5876C26.3914 18.6559 26.4161 18.7448 26.4014 18.8319L25.8575 22.0967L26.2007 22.1088C27.6677 22.1615 28.8168 23.3482 28.8168 24.8108V25.4136C28.8168 25.5799 28.6814 25.715 28.5154 25.715H20.9803V36.8669C20.9803 37.0332 20.8449 37.1683 20.6789 37.1683H18.2677ZM18.5691 36.5655H20.3775V25.715H18.5691V36.5655ZM12.8424 22.701C11.6792 22.701 10.7326 23.6476 10.7326 24.8108V25.1122H28.214V24.8108C28.214 23.6476 27.2674 22.701 26.1041 22.701H12.8424ZM23.9478 22.0982H25.2464L25.748 19.0842H23.4463L23.9478 22.0982ZM18.5691 15.0626V22.0982H20.3775V14.6355L19.9701 14.7798L19.86 14.8065C19.7894 14.8266 19.7623 14.8348 19.7341 14.8398L19.664 14.846C19.6016 14.8548 19.5386 14.8645 19.4733 14.8645C19.4079 14.8645 19.3449 14.8548 19.2825 14.846L19.2184 14.8395C19.1848 14.8348 19.1583 14.8268 19.1324 14.8195L19.0282 14.793L18.6262 14.65L18.5691 15.0626ZM13.7001 22.0982H14.9987L15.5003 19.0842H13.1986L13.7001 22.0982ZM30.3238 13.0561C30.4898 13.0561 30.6252 13.1912 30.6252 13.3575C30.6252 13.8561 31.0308 14.2617 31.5294 14.2617C32.028 14.2617 32.4336 13.8561 32.4336 13.3575V12.1519C32.4336 8.19275 29.6003 4.82434 25.6962 4.14295L24.6895 3.96723L25.4395 4.66128C27.1767 6.26837 28.214 9.0687 28.214 12.1519V13.3575C28.214 13.8561 28.6196 14.2617 29.1182 14.2617C29.6168 14.2617 30.0224 13.8561 30.0224 13.3575C30.0224 13.1912 30.1578 13.0561 30.3238 13.0561ZM25.5013 13.0561C25.6673 13.0561 25.8027 13.1912 25.8027 13.3575C25.8027 13.8561 26.2083 14.2617 26.7069 14.2617C27.2056 14.2617 27.6112 13.8561 27.6112 13.3575V12.1519C27.6112 7.66471 25.3371 4.01403 22.5421 4.01403H21.8268L22.0735 4.46113C22.8864 5.93488 23.3915 8.8818 23.3915 12.1519V13.3575C23.3915 13.8561 23.7971 14.2617 24.2957 14.2617C24.7943 14.2617 25.1999 13.8561 25.1999 13.3575C25.1999 13.1912 25.3353 13.0561 25.5013 13.0561ZM20.6789 13.0561C20.8449 13.0561 20.9803 13.1912 20.9803 13.3575C20.9803 13.8561 21.3859 14.2617 21.8845 14.2617C22.3831 14.2617 22.7887 13.8561 22.7887 13.3575V12.1519C22.7887 7.49429 21.7326 4.01403 20.7884 4.01403H18.1582C17.2139 4.01403 16.1578 7.49429 16.1578 12.1519V13.3575C16.1578 13.8561 16.5634 14.2617 17.0621 14.2617C17.5607 14.2617 17.9663 13.8561 17.9663 13.3575C17.9663 13.1912 18.1017 13.0561 18.2677 13.0561C18.4337 13.0561 18.5691 13.1912 18.5691 13.3575C18.5691 13.8561 18.9747 14.2617 19.4733 14.2617C19.9719 14.2617 20.3775 13.8561 20.3775 13.3575C20.3775 13.1912 20.5129 13.0561 20.6789 13.0561ZM13.4452 13.0561C13.6112 13.0561 13.7466 13.1912 13.7466 13.3575C13.7466 13.8561 14.1522 14.2617 14.6508 14.2617C15.1494 14.2617 15.555 13.8561 15.555 13.3575V12.1519C15.555 8.8818 16.0601 5.93488 16.8731 4.46113L17.1197 4.01403H16.4045C13.6095 4.01403 11.3354 7.66471 11.3354 12.1519V13.3575C11.3354 13.8561 11.741 14.2617 12.2396 14.2617C12.7382 14.2617 13.1438 13.8561 13.1438 13.3575C13.1438 13.1912 13.2792 13.0561 13.4452 13.0561ZM8.62278 13.0561C8.78879 13.0561 8.92418 13.1912 8.92418 13.3575C8.92418 13.8561 9.32978 14.2617 9.82839 14.2617C10.327 14.2617 10.7326 13.8561 10.7326 13.3575V12.1519C10.7326 9.0687 11.7698 6.26837 13.507 4.66128L14.257 3.96723L13.2504 4.14295C9.34627 4.82434 6.51296 8.19275 6.51296 12.1519V13.3575C6.51296 13.8561 6.91856 14.2617 7.41717 14.2617C7.91578 14.2617 8.32138 13.8561 8.32138 13.3575C8.32138 13.1912 8.45677 13.0561 8.62278 13.0561ZM18.8705 1.60281C18.3719 1.60281 17.9663 2.0084 17.9663 2.50701V3.41122H20.9803V2.50701C20.9803 2.0084 20.5747 1.60281 20.0761 1.60281H18.8705Z" fill="black" stroke="black" stroke-width="0.144673"/>
<path d="M35.7471 37.1687C35.5811 37.1687 35.4457 37.0336 35.4457 36.8673V29.935H31.8289V36.8673C31.8289 37.0336 31.6935 37.1687 31.5275 37.1687H29.1163C28.9503 37.1687 28.8149 37.0336 28.8149 36.8673V29.935H27.9107C27.8188 29.935 27.7299 29.8917 27.6734 29.819C27.6157 29.7452 27.5957 29.6513 27.6187 29.5609L27.9931 28.0624C28.1608 27.3905 28.7619 26.921 29.4548 26.921H35.4457V19.3859C35.4457 18.555 36.1215 17.8789 36.9527 17.8789C37.784 17.8789 38.4598 18.555 38.4598 19.3859V36.8673C38.4598 37.0336 38.3244 37.1687 38.1584 37.1687H35.7471ZM36.9527 18.4817C36.4541 18.4817 36.0485 18.8873 36.0485 19.3859V36.5659H37.8569V19.3859C37.8569 18.8873 37.4514 18.4817 36.9527 18.4817ZM29.4177 36.5659H31.2261V29.935H29.4177V36.5659ZM29.4548 27.5238C29.0397 27.5238 28.6789 27.8055 28.577 28.2084L28.2962 29.3322H35.4457V27.5238H29.4548Z" fill="black" stroke="black" stroke-width="0.144673"/>
<path d="M7.41664 37.1687C7.25063 37.1687 7.11523 37.0336 7.11523 36.8673V29.935H3.4984V36.8673C3.4984 37.0336 3.36301 37.1687 3.197 37.1687H0.785778C0.619771 37.1687 0.484375 37.0336 0.484375 36.8673V19.3859C0.484375 18.555 1.16018 17.8789 1.99139 17.8789C2.8226 17.8789 3.4984 18.555 3.4984 19.3859V26.921H9.48937C10.1822 26.921 10.7833 27.3905 10.9511 28.0624L11.3255 29.5603C11.3484 29.6513 11.3284 29.7452 11.2707 29.819C11.2142 29.8917 11.1253 29.935 11.0335 29.935H10.1293V36.8673C10.1293 37.0336 9.99387 37.1687 9.82786 37.1687H7.41664ZM7.71804 36.5659H9.52646V29.935H7.71804V36.5659ZM1.99139 18.4817C1.49278 18.4817 1.08718 18.8873 1.08718 19.3859V36.5659H2.8956V19.3859C2.8956 18.8873 2.49 18.4817 1.99139 18.4817ZM3.4984 29.3322H10.6479L10.3671 28.209C10.2652 27.8055 9.90439 27.5238 9.48937 27.5238H3.4984V29.3322Z" fill="black" stroke="black" stroke-width="0.144673"/>
</svg>
