<svg width="37" height="38" viewBox="0 0 37 38" fill="none" xmlns="http://www.w3.org/2000/svg">
<path d="M1.21773 26.8457H1.82038V36.6039C1.82038 36.8535 2.02247 37.056 2.27249 37.056H35.489C35.739 37.056 35.9411 36.8535 35.9411 36.6039V26.8457H36.4818C36.7319 26.8457 36.9339 26.6432 36.9339 26.3936V23.5065C36.9339 23.2569 36.7319 23.0544 36.4818 23.0544H34.8656V14.0439C36.0478 13.7781 36.9339 12.7251 36.9339 11.4683C36.9339 11.4493 36.9326 11.4299 36.9303 11.4109L35.6328 1.28283C35.6039 1.05678 35.4117 0.887695 35.1843 0.887695H2.69023C2.46463 0.887695 2.27339 1.05407 2.24265 1.27741L0.832084 11.4054C0.828919 11.4262 0.827563 11.447 0.827563 11.4678C0.827563 12.7247 1.71369 13.7776 2.89594 14.0435V23.0539H1.21773C0.967716 23.0539 0.765625 23.2564 0.765625 23.506V26.3931C0.765625 26.6432 0.968168 26.8457 1.21773 26.8457ZM35.0369 36.1518H2.72459V26.8457H35.0369V36.1518ZM34.2815 13.2062C33.3913 13.2062 32.6625 12.5384 32.5553 11.6817H36.008C35.9004 12.5384 35.1721 13.2062 34.2815 13.2062ZM28.1337 10.7775V1.7919H31.6294V10.7775H28.1337ZM27.2295 10.7775H23.7334V1.7919H27.2295V10.7775ZM22.8288 10.7775H19.3385V1.7919H22.8288V10.7775ZM18.4343 10.7775H14.9328V1.7919H18.4343V10.7775ZM14.0285 10.7775H10.5324V1.7919H14.0285V10.7775ZM9.62822 10.7775H6.1217V1.7919H9.62822V10.7775ZM9.60652 11.6817C9.49937 12.5384 8.77058 13.2062 7.88039 13.2062C6.99019 13.2062 6.2614 12.5384 6.15425 11.6817H9.60652ZM14.0068 11.6817C13.8997 12.5384 13.1709 13.2062 12.2803 13.2062C11.3901 13.2062 10.6613 12.5384 10.5541 11.6817H14.0068ZM18.4072 11.6817C18.3 12.5384 17.5712 13.2062 16.681 13.2062C15.7908 13.2062 15.0621 12.5384 14.9549 11.6817H18.4072ZM22.8071 11.6817C22.6999 12.5384 21.9711 13.2062 21.0809 13.2062C20.1907 13.2062 19.4619 12.5384 19.3548 11.6817H22.8071ZM27.2078 11.6817C27.1007 12.5384 26.3719 13.2062 25.4817 13.2062C24.5911 13.2062 23.8623 12.5384 23.7551 11.6817H27.2078ZM31.6077 11.6817C31.5006 12.5384 30.7718 13.2062 29.8816 13.2062C28.9914 13.2062 28.2626 12.5384 28.1554 11.6817H31.6077ZM35.938 10.7775H32.5336V1.7919H34.7865L35.938 10.7775ZM3.08356 1.7919H5.21749V10.7775H1.83259L3.08356 1.7919ZM1.75392 11.6817H5.20619C5.09904 12.5384 4.37025 13.2062 3.48006 13.2062C2.58986 13.2062 1.86107 12.5384 1.75392 11.6817ZM3.80015 14.0891C4.58138 13.9951 5.25954 13.5624 5.68 12.9417C6.15697 13.6461 6.96488 14.1104 7.87993 14.1104C8.79499 14.1104 9.6029 13.6461 10.0799 12.9417C10.5568 13.6461 11.3648 14.1104 12.2798 14.1104C13.1949 14.1104 14.0032 13.6461 14.4802 12.9417C14.9572 13.6461 15.7651 14.1104 16.6801 14.1104C17.5952 14.1104 18.4031 13.6461 18.8801 12.9417C19.357 13.6461 20.165 14.1104 21.08 14.1104C21.9951 14.1104 22.803 13.6461 23.28 12.9417C23.7569 13.6461 24.5653 14.1104 25.4803 14.1104C26.3954 14.1104 27.2033 13.6461 27.6803 12.9417C28.1573 13.6461 28.9652 14.1104 29.8802 14.1104C30.7953 14.1104 31.6032 13.6461 32.0802 12.9417C32.5006 13.5624 33.1788 13.9946 33.96 14.0891V23.0544H32.3763C32.2619 21.6772 31.2162 20.5601 29.8648 20.3214C29.6686 18.8353 28.3851 17.6834 26.8317 17.6834C25.7272 17.6834 24.7597 18.2675 24.2212 19.1382C23.6823 18.2675 22.7157 17.6834 21.6108 17.6834C20.5171 17.6834 19.5587 18.2557 19.0166 19.1116C18.4745 18.2553 17.5156 17.6834 16.4224 17.6834C15.318 17.6834 14.3509 18.2675 13.812 19.1382C13.2731 18.2675 12.306 17.6834 11.2015 17.6834C9.66077 17.6834 8.38629 18.8168 8.1738 20.2852C6.69497 20.4141 5.51633 21.5873 5.39427 23.0544H3.79924V14.0891H3.80015ZM26.7182 21.7265C26.2806 21.0194 25.5613 20.5009 24.714 20.3318C24.8985 19.3412 25.7765 18.5876 26.833 18.5876C27.8778 18.5876 28.7504 19.3236 28.9484 20.2974C28.004 20.4141 27.1938 20.9575 26.7182 21.7265ZM21.4973 21.7265C21.0597 21.0194 20.3404 20.5009 19.4931 20.3318C19.6776 19.3412 20.5556 18.5876 21.6121 18.5876C22.657 18.5876 23.5295 19.3236 23.7275 20.2974C22.7831 20.4141 21.9729 20.9575 21.4973 21.7265ZM16.2764 21.7265C15.8442 21.0285 15.1376 20.5144 14.3039 20.339C14.4856 19.3453 15.3645 18.5876 16.4233 18.5876C17.4668 18.5876 18.3389 19.3213 18.5383 20.2929C17.5803 20.4005 16.7574 20.9485 16.2764 21.7265ZM11.0555 21.7265C10.6233 21.028 9.91666 20.5144 9.08298 20.339C9.26473 19.3453 10.1436 18.5876 11.2024 18.5876C12.2459 18.5876 13.118 19.3213 13.3174 20.2929C12.3594 20.4005 11.537 20.9485 11.0555 21.7265ZM8.44552 21.1759C9.54865 21.1759 10.4506 21.9996 10.5781 23.0544H6.31294C6.43998 21.9996 7.34193 21.1759 8.44552 21.1759ZM13.666 21.1759C14.7695 21.1759 15.6715 21.9996 15.799 23.0544H11.5338C11.6609 21.9996 12.5628 21.1759 13.666 21.1759ZM18.8864 21.1759C19.99 21.1759 20.8919 21.9996 21.0194 23.0544H16.7543C16.8818 21.9996 17.7837 21.1759 18.8864 21.1759ZM24.1073 21.1759C25.2109 21.1759 26.1128 21.9996 26.2403 23.0544H21.9752C22.1022 21.9996 23.0046 21.1759 24.1073 21.1759ZM29.3282 21.1759C30.4313 21.1759 31.3333 21.9996 31.4608 23.0544H27.1961C27.3231 21.9996 28.2255 21.1759 29.3282 21.1759ZM1.66983 23.9586H36.0297V25.9415H1.66983V23.9586Z" fill="#E02749"/>
</svg>
