<svg width="37" height="38" viewBox="0 0 37 38" fill="none" xmlns="http://www.w3.org/2000/svg">
<path d="M36.8433 34.7158C36.8428 34.6863 36.8285 34.6274 36.8055 34.5861C36.8026 34.5808 36.8035 34.5744 36.8002 34.5693L33.9729 30.1275V17.0462C33.9729 16.8901 33.8465 16.7637 33.6903 16.7637C33.5342 16.7637 33.4078 16.8901 33.4078 17.0462V29.9273H4.11239V27.1762C4.11239 27.02 3.98601 26.8936 3.82983 26.8936C3.67364 26.8936 3.54726 27.02 3.54726 27.1762V30.1275C0.801006 34.511 0.680554 34.5308 0.676816 34.7158C0.676747 34.7177 0.675781 34.7192 0.675781 34.721V36.8861C0.675781 37.0423 0.802164 37.1687 0.958348 37.1687H36.5618C36.718 37.1687 36.8444 37.0423 36.8444 36.8861C36.8443 36.6642 36.8446 37.69 36.8433 34.7158ZM3.98491 30.4925H33.5353L36.0469 34.4385H1.47326L3.98491 30.4925ZM36.2792 36.6035H1.24091V35.0036H36.2792V36.6035Z" fill="black" stroke="black" stroke-width="0.289347"/>
<path d="M36.8444 1.28257C36.8444 1.12638 36.718 1 36.5618 1H0.958355C0.80217 1 0.675787 1.12638 0.675787 1.28257V3.44763C0.675787 3.59664 0.652093 3.45162 3.54727 8.59858V24.2447C3.54727 24.4009 3.67365 24.5273 3.82983 24.5273C3.98602 24.5273 4.1124 24.4009 4.1124 24.2447V8.80647H33.4078V14.0972C33.4078 14.2533 33.5342 14.3797 33.6903 14.3797C33.8465 14.3797 33.9729 14.2533 33.9729 14.0972V8.59858C36.9668 3.2762 36.8444 3.58663 36.8444 3.44763V1.28257ZM1.24092 1.56513H36.2793V3.16506H1.24092V1.56513ZM33.5253 8.24134H3.99485L1.44291 3.7302H36.0773L33.5253 8.24134Z" fill="black" stroke="black" stroke-width="0.289347"/>
<path d="M8.46067 14.2949L8.28406 15.5245C8.2653 15.657 8.34201 15.785 8.46784 15.8303L10.139 16.4351C10.2477 16.9164 10.3967 17.8993 10.1594 18.4087C9.5225 19.8028 9.55341 21.6682 9.55506 21.7471C9.55837 21.9005 9.68365 22.0236 9.83763 22.0236H12.7086V26.9935C11.5358 26.7862 10.7448 26.9604 10.6909 26.9735C10.5396 27.0088 10.4458 27.1606 10.4811 27.3123C10.5165 27.4641 10.6704 27.5607 10.82 27.5237C10.8277 27.5217 11.1611 27.4511 11.7059 27.4637C11.3526 27.613 10.9861 27.7947 10.6081 28.0265C10.4751 28.1076 10.4337 28.282 10.5153 28.415C10.5971 28.5487 10.7722 28.5892 10.9039 28.5077C11.6575 28.0457 12.3702 27.7825 12.9913 27.6345C13.6123 27.7825 14.3251 28.0457 15.0789 28.5077C15.2106 28.5892 15.3857 28.5487 15.4675 28.415C15.5491 28.282 15.5077 28.1076 15.3747 28.0265C14.9969 27.7947 14.6306 27.613 14.2775 27.4637C14.8217 27.4512 15.1549 27.5217 15.1628 27.5237C15.3129 27.5607 15.4663 27.4641 15.5017 27.3123C15.537 27.1606 15.4432 27.0088 15.2914 26.9735C15.2381 26.9604 14.447 26.7863 13.2737 26.9938V22.0236H16.1452C16.2991 22.0236 16.4244 21.9005 16.4277 21.7471C16.4294 21.6682 16.4603 19.8022 15.8229 18.4087C15.8223 18.4081 15.8223 18.4076 15.8218 18.407C15.5861 17.8993 15.7346 16.9164 15.8433 16.4351L17.515 15.8303C17.6408 15.785 17.7175 15.657 17.6987 15.5245L17.5221 14.2949C17.3317 12.9842 16.1899 11.9957 14.8653 11.9957H14.5011L14.6711 10.7957C14.6827 10.7148 14.6584 10.6326 14.6048 10.571C14.5508 10.5092 14.4729 10.4736 14.3913 10.4736H11.5915C11.5099 10.4736 11.432 10.5092 11.3785 10.5708C11.3244 10.6326 11.3001 10.7145 11.3117 10.7957L11.4812 11.9957H11.1169C9.79237 11.9957 8.65052 12.9842 8.46067 14.2949ZM11.8062 12.5609C11.8879 12.5609 11.9657 12.5256 12.0192 12.4637C12.0733 12.4019 12.0976 12.3197 12.086 12.2386L11.9166 11.0388H14.0662L13.8962 12.2386C13.8846 12.3197 13.9089 12.4019 13.9624 12.4637C14.0165 12.5256 14.0944 12.5609 14.176 12.5609H14.8653C15.9283 12.5609 16.8102 13.3241 16.9625 14.3755L17.1066 15.3772L15.5083 15.9555C15.4211 15.987 15.3549 16.0593 15.3311 16.1487C15.2875 16.3148 14.9145 17.7933 15.3091 18.6449C15.755 19.6201 15.8427 20.9027 15.8593 21.4584H10.1235C10.1395 20.9027 10.2267 19.6217 10.6726 18.6455C11.0689 17.7944 10.6953 16.3148 10.6511 16.1487C10.6274 16.0593 10.5612 15.987 10.474 15.9555L8.87624 15.3772L9.02028 14.3755C9.16984 13.3412 10.0711 12.5609 11.1169 12.5609H11.8062Z" fill="black" stroke="black" stroke-width="0.289347"/>
<path d="M22.0547 21.2669V22.88C22.0547 23.4493 23.1997 23.7462 25.435 23.77V26.9939C24.2625 26.7868 23.4715 26.9609 23.4173 26.9739C23.2661 27.0093 23.1723 27.161 23.2076 27.3128C23.2429 27.4646 23.398 27.5612 23.5464 27.5242C23.5542 27.5221 23.8875 27.4516 24.4322 27.4642C24.0789 27.6134 23.7125 27.7952 23.3345 28.027C23.2015 28.1081 23.1601 28.2825 23.2418 28.4155C23.3235 28.5492 23.4987 28.5897 23.6303 28.5082C24.3839 28.0462 25.0967 27.783 25.7177 27.635C26.3387 27.783 27.0516 28.0462 27.8054 28.5082C27.937 28.5897 28.1122 28.5492 28.1939 28.4155C28.2756 28.2825 28.2342 28.1081 28.1012 28.027C27.7233 27.7952 27.3571 27.6134 27.004 27.4642C27.5482 27.4516 27.8814 27.5221 27.8893 27.5242C28.0399 27.5612 28.1928 27.4646 28.2281 27.3128C28.2634 27.161 28.1696 27.0093 28.0178 26.9739C27.9649 26.9609 27.1735 26.7868 26.0001 26.9943V23.77C28.2357 23.7463 29.381 23.4494 29.381 22.88L29.3805 21.2669C29.3805 20.5742 29.1459 19.8816 28.7027 19.2646C28.019 18.3115 28.019 17.0311 28.7027 16.0786C29.1459 15.4615 29.3805 14.7689 29.3805 14.0757V12.8357C29.3805 12.6795 29.2541 12.5531 29.0979 12.5531C28.1674 12.5531 27.4102 11.7981 27.4064 10.8684L27.4345 10.3135C27.4384 10.2363 27.4108 10.1606 27.3572 10.1046C27.3037 10.0483 27.2298 10.0166 27.1525 10.0166H24.2832C24.206 10.0166 24.132 10.0483 24.0785 10.1044C24.0249 10.1604 23.9973 10.236 24.0012 10.3132L24.0288 10.8615C24.0288 11.7942 23.2699 12.5531 22.3373 12.5531C22.1811 12.5531 22.0547 12.6795 22.0547 12.8357V14.0757C22.0547 14.7673 22.2892 15.4599 22.733 16.0786C23.0685 16.5466 23.2457 17.0973 23.2457 17.6713C23.2457 18.2458 23.0685 18.7966 22.733 19.2641C22.2892 19.8827 22.0547 20.5753 22.0547 21.2669ZM23.8108 17.6713C23.8108 16.9787 23.5967 16.3137 23.1921 15.7496C22.818 15.227 22.6198 14.6486 22.6198 14.0757V13.1006C23.7313 12.9609 24.5939 12.0089 24.5934 10.8475L24.5801 10.5817H26.855L26.8418 10.8472C26.8412 10.8519 26.8412 10.8569 26.8412 10.8615C26.8412 12.01 27.7038 12.9609 28.8159 13.1006L28.8153 14.0757C28.8153 14.6497 28.6178 15.2286 28.2436 15.7491C27.4185 16.8987 27.4185 18.4439 28.2436 19.5941C28.6178 20.1145 28.8153 20.6934 28.8153 21.2669L28.8159 22.8293C28.6084 22.9893 27.5311 23.2095 25.7181 23.2095C23.9041 23.2095 22.8273 22.9893 22.6198 22.8293V21.2669C22.6198 20.694 22.818 20.1156 23.1921 19.5935C23.5967 19.0295 23.8108 18.3645 23.8108 17.6713Z" fill="black" stroke="black" stroke-width="0.289347"/>
<path d="M18.7602 7.29288C19.6355 7.29288 20.348 6.70567 20.348 5.9838C20.348 5.26469 19.6355 4.67969 18.7602 4.67969C17.8844 4.67969 17.1719 5.26469 17.1719 5.9838C17.1719 6.70567 17.8844 7.29288 18.7602 7.29288ZM18.7602 5.24482C19.3143 5.24482 19.7829 5.58313 19.7829 5.9838C19.7829 6.39413 19.3242 6.72775 18.7602 6.72775C18.2056 6.72775 17.737 6.38696 17.737 5.9838C17.737 5.58313 18.2056 5.24482 18.7602 5.24482Z" fill="black" stroke="black" stroke-width="0.289347"/>
<path d="M9.01747 7.29288C9.89332 7.29288 10.6058 6.70567 10.6058 5.9838C10.6058 5.26469 9.89332 4.67969 9.01747 4.67969C8.14218 4.67969 7.42969 5.26469 7.42969 5.9838C7.42969 6.70567 8.14218 7.29288 9.01747 7.29288ZM9.01747 5.24482C9.57212 5.24482 10.0407 5.58313 10.0407 5.9838C10.0407 6.39413 9.5815 6.72775 9.01747 6.72775C8.46338 6.72775 7.99482 6.38696 7.99482 5.9838C7.99482 5.58313 8.46338 5.24482 9.01747 5.24482Z" fill="black" stroke="black" stroke-width="0.289347"/>
<path d="M28.5058 7.29288C29.381 7.29288 30.0935 6.70567 30.0935 5.9838C30.0935 5.26469 29.381 4.67969 28.5058 4.67969C27.6305 4.67969 26.918 5.26469 26.918 5.9838C26.918 6.70567 27.6305 7.29288 28.5058 7.29288ZM28.5058 5.24482C29.0599 5.24482 29.5284 5.58313 29.5284 5.9838C29.5284 6.39413 29.0698 6.72775 28.5058 6.72775C27.9517 6.72775 27.4831 6.38696 27.4831 5.9838C27.4831 5.58313 27.9517 5.24482 28.5058 5.24482Z" fill="black" stroke="black" stroke-width="0.289347"/>
</svg>
