<svg width="37" height="37" viewBox="0 0 37 37" fill="none" xmlns="http://www.w3.org/2000/svg">
<path d="M36.1621 33.3426H34.8397V15.3142H35.4275C35.6775 15.3142 35.8796 15.1121 35.8796 14.8621C35.8796 14.6121 35.6775 14.41 35.4275 14.41H19.642V8.55424C19.7586 8.58408 19.878 8.60081 19.9969 8.60081C20.2483 8.60081 20.4987 8.5348 20.7289 8.40278C21.1945 8.13378 21.4685 7.65228 21.4613 7.11427C21.454 6.607 21.1909 6.1463 20.7573 5.88317L11.1893 0.0653928C11.1432 0.0373618 11.0934 0.0188252 11.0415 0.00978295C10.9289 -0.0137269 10.81 0.0052619 10.7105 0.0653928L1.1488 5.87819C0.714771 6.14223 0.445312 6.62192 0.445312 7.12964C0.445312 7.66358 0.722457 8.1392 1.18678 8.40278C1.52405 8.59403 1.90518 8.63834 2.26461 8.54701V14.4104H1.92507C1.67506 14.4104 1.47296 14.6125 1.47296 14.8626C1.47296 15.1126 1.67506 15.3147 1.92507 15.3147H2.26461V17.9595H1.20034C0.950321 17.9595 0.748227 18.1616 0.748227 18.4116V20.8313C0.748227 21.0814 0.950321 21.2834 1.20034 21.2834H2.29174V33.3426H0.897877C0.647859 33.3426 0.445765 33.5447 0.445765 33.7947V35.7162C0.445765 35.9662 0.647859 36.1683 0.897877 36.1683H36.1626C36.4126 36.1683 36.6147 35.9662 36.6147 35.7162V33.7947C36.6143 33.5447 36.4122 33.3426 36.1621 33.3426ZM33.9355 33.3426H33.246V15.3142H33.9355V33.3426ZM28.9835 22.6967C29.3787 22.6967 29.7006 23.0187 29.7006 23.4138C29.7006 23.8089 29.3787 24.1308 28.9835 24.1308C28.5884 24.1308 28.2669 23.8089 28.2669 23.4138C28.2669 23.0187 28.5884 22.6967 28.9835 22.6967ZM23.73 22.6967C24.1251 22.6967 24.447 23.0187 24.447 23.4138C24.447 23.8089 24.1251 24.1308 23.73 24.1308C23.3348 24.1308 23.0129 23.8089 23.0129 23.4138C23.0129 23.0187 23.3348 22.6967 23.73 22.6967ZM23.2779 15.3142V21.8649C22.6047 22.062 22.1087 22.6778 22.1087 23.4143C22.1087 24.3085 22.8357 25.0355 23.73 25.0355C24.6242 25.0355 25.3512 24.3085 25.3512 23.4143C25.3512 22.6782 24.8553 22.0624 24.1821 21.8649V15.3142H28.5314V21.8649C27.8587 22.062 27.3627 22.6778 27.3627 23.4138C27.3627 24.3081 28.0897 25.0351 28.9835 25.0351C29.8778 25.0351 30.6048 24.3081 30.6048 23.4138C30.6048 22.6778 30.1088 22.062 29.4356 21.8644V15.3142H32.3418V33.3426H19.642V21.2825H20.7062C20.9563 21.2825 21.1584 21.0805 21.1584 20.8304V18.4107C21.1584 18.1607 20.9563 17.9586 20.7062 17.9586H19.642V15.3138H23.2779V15.3142ZM17.1445 21.2825V33.3426H4.7892V21.2825H17.1445ZM18.0487 21.2825H18.7378V33.3426H18.0487V21.2825ZM7.75551 15.3142V17.9591H5.91451V15.3142H7.75551ZM8.65973 15.3142H10.5012V17.9591H8.65973V15.3142ZM11.4054 15.3142H13.2464V17.9591H11.4054V15.3142ZM14.1506 15.3142H15.9921V17.9591H14.1506V15.3142ZM16.8968 15.3142H18.7378V17.9591H16.8968V15.3142ZM1.63301 7.61656C1.54801 7.56819 1.34954 7.42351 1.34954 7.12964C1.34954 6.93523 1.45262 6.75167 1.61854 6.65085L10.9497 0.978206L20.288 6.65583C20.454 6.75665 20.5548 6.93252 20.5575 7.12647C20.5602 7.33218 20.4553 7.51619 20.2776 7.61882C20.0986 7.7219 19.887 7.7201 19.7107 7.61475L19.4521 7.46013C19.4195 7.43662 19.3879 7.41356 19.3495 7.3991L11.1812 2.52443C11.1097 2.48148 11.0297 2.46023 10.9492 2.46023C10.8687 2.46023 10.7892 2.48148 10.7173 2.52443L2.54673 7.40136C2.53271 7.40723 2.52186 7.41718 2.50875 7.42396L2.19634 7.61023C1.94497 7.75988 1.71846 7.66403 1.63301 7.61656ZM3.16838 8.08269L10.9492 3.43905L18.7378 8.08676V14.4095H3.16838V8.08269ZM3.16838 15.3142H5.00983V17.9591H3.16838V15.3142ZM1.652 18.8633H20.2546V20.3788H1.652V18.8633ZM3.19551 21.2825H3.88498V33.3426H3.19551V21.2825ZM35.71 35.2641H1.34954V34.2468H35.71V35.2641Z" fill="black"/>
<path d="M10.9523 31.4475C13.2738 31.4475 15.1623 29.5586 15.1623 27.2374C15.1623 24.9163 13.2734 23.0273 10.9523 23.0273C8.63111 23.0273 6.74219 24.9163 6.74219 27.2374C6.74219 29.5586 8.63066 31.4475 10.9523 31.4475ZM10.9523 23.9311C12.7752 23.9311 14.2581 25.414 14.2581 27.237C14.2581 29.0599 12.7752 30.5428 10.9523 30.5428C9.12934 30.5428 7.64641 29.0599 7.64641 27.237C7.64641 25.414 9.12934 23.9311 10.9523 23.9311Z" fill="black"/>
</svg>
