<svg width="20" height="23" viewBox="0 0 20 23" fill="none" xmlns="http://www.w3.org/2000/svg">
<path d="M17.7682 8.37957C17.2399 7.58202 16.519 6.93031 15.6721 6.4846C14.8252 6.03889 13.8795 5.81356 12.9224 5.8294C14.1515 4.6583 14.9852 3.13394 15.3078 1.4679C15.3274 1.38129 15.3124 1.29046 15.2659 1.21477C15.2194 1.13908 15.1452 1.08452 15.059 1.06273C14.9872 1.04641 14.9143 1.03503 14.8409 1.02868C13.6149 0.891942 12.3848 1.24736 11.4211 2.01676C10.4573 2.78616 9.83897 3.90653 9.70199 5.13143C9.65513 5.54523 9.66661 5.96355 9.73607 6.37417C9.49264 6.34869 9.25403 6.28909 9.02724 6.19712C6.64178 5.21995 3.57476 6.19712 2.2355 8.36936C1.36001 9.77116 0.932196 11.4059 1.00889 13.0565C1.08559 14.707 1.66317 16.2952 2.66488 17.6099L4.638 20.2316C5.18774 20.963 5.95079 21.5063 6.82222 21.7868C7.69365 22.0672 8.63064 22.0711 9.50434 21.7978C9.82815 21.6956 10.1756 21.6956 10.4994 21.7978C11.3726 22.0703 12.3089 22.0661 13.1796 21.7856C14.0504 21.5052 14.8128 20.9623 15.3623 20.2316L17.3389 17.6099C18.3384 16.2961 18.9147 14.7099 18.9913 13.0615C19.068 11.4131 18.6415 9.78029 17.7682 8.37957ZM10.3801 5.21314C10.4827 4.26437 10.9239 3.38427 11.623 2.73399C12.322 2.08371 13.2321 1.70677 14.1867 1.67219C14.3093 1.67219 14.4286 1.67219 14.5479 1.67219C13.8663 4.26662 12.1829 6.11881 10.404 6.25159C10.3485 5.90474 10.3404 5.55195 10.3801 5.20293V5.21314ZM16.797 17.2013L14.8205 19.823C14.3553 20.4416 13.7098 20.901 12.9726 21.1382C12.2355 21.3753 11.4429 21.3786 10.7039 21.1474C10.2472 21.0022 9.75658 21.0022 9.29987 21.1474C8.56081 21.3786 7.76825 21.3753 7.03111 21.1382C6.29397 20.901 5.64844 20.4416 5.18325 19.823L3.20672 17.2013C2.28651 15.9949 1.75607 14.537 1.68606 13.0218C1.61604 11.5066 2.00978 10.006 2.81482 8.72005C3.97348 6.84402 6.69972 5.9724 8.77166 6.81679C9.55984 7.1403 10.4439 7.1403 11.2321 6.81679C13.304 5.99624 16.0303 6.85424 17.1889 8.72005C17.994 10.006 18.3877 11.5066 18.3177 13.0218C18.2477 14.537 17.7172 15.9949 16.797 17.2013Z" fill="black"/>
<path fill-rule="evenodd" clip-rule="evenodd" d="M14.8805 0.630621C14.9704 0.638625 15.0597 0.652676 15.1477 0.672679L15.1571 0.674826C15.3443 0.722167 15.5057 0.840843 15.6068 1.00547C15.7066 1.168 15.7397 1.36269 15.6995 1.54897C15.4166 3.00545 14.7613 4.3585 13.8038 5.47959C14.5196 5.57268 15.2155 5.79234 15.8584 6.13063C16.7647 6.60761 17.5363 7.30508 18.1017 8.15868L17.7682 8.37957L18.1077 8.16796C19.0238 9.63752 19.4713 11.3506 19.3909 13.0801C19.3104 14.8094 18.7059 16.4734 17.6576 17.8516L15.682 20.472C15.0829 21.2688 14.2515 21.8606 13.3022 22.1664C12.3529 22.4721 11.3322 22.4767 10.3802 22.1796L10.3791 22.1792C10.1336 22.1018 9.87013 22.1018 9.62463 22.1792C8.6721 22.4772 7.6497 22.4733 6.69965 22.1675C5.74968 21.8618 4.91778 21.2695 4.31837 20.4721M4.31837 20.4721L2.34669 17.8523L2.34606 17.8515C1.29551 16.4723 0.689751 14.8064 0.609299 13.075C0.528848 11.3437 0.977497 9.62891 1.8956 8.15844C3.33982 5.81718 6.61563 4.77741 9.17817 5.82669C9.21159 5.84023 9.24531 5.85294 9.2793 5.86481C9.28857 6.05767 9.30936 6.25004 9.34165 6.44088L9.2793 5.86481L9.77768 5.97634C9.60767 5.95854 9.44043 5.92109 9.2793 5.86481C9.26684 5.60541 9.27521 5.3451 9.3045 5.08642C9.45341 3.75621 10.125 2.53963 11.1715 1.70417C12.2168 0.869597 13.5508 0.483582 14.8805 0.630621M11.9603 6.19351L12.0524 6.10576C11.9921 6.14262 11.9313 6.17782 11.8699 6.21131C11.9 6.2051 11.9301 6.19917 11.9603 6.19351ZM10.7767 5.25608C10.7568 5.43442 10.7508 5.61383 10.7587 5.79271C11.392 5.64276 12.0244 5.24173 12.591 4.61643C13.1748 3.97206 13.6732 3.10474 14.0093 2.08404C13.2212 2.1551 12.4771 2.48579 11.8954 3.02687C11.2668 3.61166 10.87 4.40306 10.7778 5.25614L10.7767 5.25608ZM8.62019 7.18701C6.72536 6.41511 4.20885 7.2241 3.15512 8.93024L3.15385 8.9323C2.39197 10.1494 2.01935 11.5694 2.08561 13.0033C2.15186 14.4372 2.65385 15.817 3.52474 16.9587L3.5261 16.9605L5.50262 19.5822C5.91813 20.1347 6.49506 20.5455 7.15359 20.7574C7.81185 20.9692 8.51959 20.9722 9.1796 20.7659C9.71459 20.596 10.2892 20.596 10.8242 20.766C11.4842 20.9721 12.1919 20.9692 12.8501 20.7574C13.5086 20.5455 14.0853 20.1351 14.5008 19.5826L16.4776 16.9605L16.479 16.9587C17.3499 15.817 17.8518 14.4372 17.9181 13.0033C17.9844 11.5694 17.6117 10.1493 16.8499 8.93229L16.8491 8.93107C16.3286 8.09287 15.4431 7.46382 14.4317 7.14222C13.4215 6.82095 12.3189 6.81727 11.3815 7.18782C10.4968 7.55022 9.50477 7.54995 8.62019 7.18701Z" fill="black"/>
</svg>
